/* XPM */
static char * tex_xpm[] = {
"64 64 425 2",
"  	c #00445F",
". 	c #00425E",
"+ 	c #00435B",
"@ 	c #00435C",
"# 	c #00425C",
"$ 	c #004159",
"% 	c #004158",
"& 	c #004057",
"* 	c #00415A",
"= 	c #004058",
"- 	c #003F55",
"; 	c #003F54",
"> 	c #003D52",
", 	c #004054",
"' 	c #003E54",
") 	c #00394D",
"! 	c #003446",
"~ 	c #002939",
"{ 	c #002836",
"] 	c #002A37",
"^ 	c #002834",
"/ 	c #00232D",
"( 	c #002A35",
"_ 	c #002731",
": 	c #00222C",
"< 	c #002630",
"[ 	c #002733",
"} 	c #003547",
"| 	c #004359",
"1 	c #004259",
"2 	c #004056",
"3 	c #00384D",
"4 	c #00384B",
"5 	c #003C51",
"6 	c #00384E",
"7 	c #00364A",
"8 	c #003447",
"9 	c #003243",
"0 	c #002F40",
"a 	c #002C3C",
"b 	c #002833",
"c 	c #00212B",
"d 	c #00202B",
"e 	c #00242F",
"f 	c #00202A",
"g 	c #00262E",
"h 	c #002A32",
"i 	c #00333E",
"j 	c #002E3C",
"k 	c #00445E",
"l 	c #00425B",
"m 	c #003C52",
"n 	c #003D53",
"o 	c #002D3C",
"p 	c #001F29",
"q 	c #002530",
"r 	c #002631",
"s 	c #003647",
"t 	c #00435D",
"u 	c #003B50",
"v 	c #002832",
"w 	c #001E27",
"x 	c #00232E",
"y 	c #00232B",
"z 	c #002A33",
"A 	c #003340",
"B 	c #003140",
"C 	c #00394E",
"D 	c #002E3E",
"E 	c #002936",
"F 	c #002A38",
"G 	c #00252F",
"H 	c #001D26",
"I 	c #003749",
"J 	c #003E55",
"K 	c #003E53",
"L 	c #003040",
"M 	c #002938",
"N 	c #001D29",
"O 	c #00222A",
"P 	c #002B33",
"Q 	c #003441",
"R 	c #003444",
"S 	c #00374E",
"T 	c #003B52",
"U 	c #003A50",
"V 	c #002E3F",
"W 	c #002935",
"X 	c #002732",
"Y 	c #001C26",
"Z 	c #003648",
"` 	c #00364B",
" .	c #003E52",
"..	c #002734",
"+.	c #00202C",
"@.	c #002632",
"#.	c #002934",
"$.	c #001C25",
"%.	c #002129",
"&.	c #002D37",
"*.	c #002B3D",
"=.	c #00415C",
"-.	c #004059",
";.	c #003B51",
">.	c #003D51",
",.	c #00242E",
"'.	c #001F28",
").	c #002330",
"!.	c #002F42",
"~.	c #003345",
"{.	c #002D3D",
"].	c #002B3B",
"^.	c #002C3B",
"/.	c #002B3A",
"(.	c #001E28",
"_.	c #001D25",
":.	c #001F27",
"<.	c #00323E",
"[.	c #00283A",
"}.	c #00354A",
"|.	c #00425A",
"1.	c #003F56",
"2.	c #00374C",
"3.	c #003C50",
"4.	c #002A36",
"5.	c #00222E",
"6.	c #003346",
"7.	c #003A4E",
"8.	c #002432",
"9.	c #002F3F",
"0.	c #001D28",
"a.	c #00212C",
"b.	c #001A23",
"c.	c #00232C",
"d.	c #003745",
"e.	c #002F3D",
"f.	c #003443",
"g.	c #00293A",
"h.	c #002637",
"i.	c #003C53",
"j.	c #003649",
"k.	c #00374B",
"l.	c #002837",
"m.	c #003244",
"n.	c #003344",
"o.	c #003041",
"p.	c #002736",
"q.	c #00212D",
"r.	c #002737",
"s.	c #00222F",
"t.	c #002633",
"u.	c #00222D",
"v.	c #001E26",
"w.	c #002F3B",
"x.	c #003544",
"y.	c #00394F",
"z.	c #003549",
"A.	c #004156",
"B.	c #003042",
"C.	c #002B39",
"D.	c #002A39",
"E.	c #002634",
"F.	c #002D3E",
"G.	c #00212E",
"H.	c #001C27",
"I.	c #002931",
"J.	c #003846",
"K.	c #003848",
"L.	c #002838",
"M.	c #003D54",
"N.	c #004256",
"O.	c #00384C",
"P.	c #003548",
"Q.	c #00232F",
"R.	c #004459",
"S.	c #002F41",
"T.	c #003143",
"U.	c #001B24",
"V.	c #001A22",
"W.	c #001A21",
"X.	c #002028",
"Y.	c #00252E",
"Z.	c #002F3A",
"`.	c #003744",
" +	c #00303E",
".+	c #003445",
"++	c #003747",
"@+	c #002B3C",
"#+	c #003E56",
"$+	c #003A4F",
"%+	c #004257",
"&+	c #00394C",
"*+	c #002730",
"=+	c #002B38",
"-+	c #00384A",
";+	c #001F2A",
">+	c #001921",
",+	c #00242C",
"'+	c #002830",
")+	c #00303A",
"!+	c #003541",
"~+	c #003643",
"{+	c #003342",
"]+	c #003343",
"^+	c #003A4A",
"/+	c #003142",
"(+	c #002E40",
"_+	c #00293B",
":+	c #003F57",
"<+	c #003B4F",
"[+	c #00374A",
"}+	c #002A34",
"|+	c #00303C",
"1+	c #003B4D",
"2+	c #004357",
"3+	c #001A25",
"4+	c #002C35",
"5+	c #003743",
"6+	c #003746",
"7+	c #003242",
"8+	c #003748",
"9+	c #003B4C",
"0+	c #00394A",
"a+	c #002C3D",
"b+	c #002835",
"c+	c #002531",
"d+	c #003542",
"e+	c #003D4F",
"f+	c #004155",
"g+	c #003448",
"h+	c #002B34",
"i+	c #003C4E",
"j+	c #004458",
"k+	c #002A3A",
"l+	c #002029",
"m+	c #002933",
"n+	c #002C37",
"o+	c #003847",
"p+	c #00313C",
"q+	c #003546",
"r+	c #003A4B",
"s+	c #004358",
"t+	c #00455A",
"u+	c #002B35",
"v+	c #003442",
"w+	c #003646",
"x+	c #00202E",
"y+	c #003845",
"z+	c #003A4C",
"A+	c #00435A",
"B+	c #002B37",
"C+	c #00333F",
"D+	c #003948",
"E+	c #003F52",
"F+	c #00212A",
"G+	c #003B4B",
"H+	c #003C4F",
"I+	c #002937",
"J+	c #002431",
"K+	c #002735",
"L+	c #002C36",
"M+	c #00384F",
"N+	c #00272F",
"O+	c #003141",
"P+	c #004055",
"Q+	c #003E51",
"R+	c #002C34",
"S+	c #003E50",
"T+	c #003849",
"U+	c #003F53",
"V+	c #002533",
"W+	c #003043",
"X+	c #00313E",
"Y+	c #003B4E",
"Z+	c #002F39",
"`+	c #00394B",
" @	c #002532",
".@	c #003D50",
"+@	c #002430",
"@@	c #002635",
"#@	c #002534",
"$@	c #003245",
"%@	c #002B36",
"&@	c #003145",
"*@	c #002A31",
"=@	c #00202D",
"-@	c #003144",
";@	c #003545",
">@	c #00242D",
",@	c #002E39",
"'@	c #004053",
")@	c #002831",
"!@	c #003440",
"~@	c #003A4D",
"{@	c #00445B",
"]@	c #003241",
"^@	c #00222B",
"/@	c #00465C",
"(@	c #004157",
"_@	c #00374D",
":@	c #002C38",
"<@	c #002E3A",
"[@	c #002230",
"}@	c #00475E",
"|@	c #001E29",
"1@	c #00313D",
"2@	c #00455C",
"3@	c #00303F",
"4@	c #00485F",
"5@	c #00303B",
"6@	c #004860",
"7@	c #004559",
"8@	c #002D3F",
"9@	c #003240",
"0@	c #002932",
"a@	c #003A51",
"b@	c #00475D",
"c@	c #002A3C",
"d@	c #002E3B",
"e@	c #003C4D",
"f@	c #00465F",
"g@	c #00252D",
"h@	c #00262F",
"i@	c #00475F",
"j@	c #004258",
"k@	c #003645",
"l@	c #004C66",
"m@	c #004861",
"n@	c #00455B",
"o@	c #002C3E",
"p@	c #003246",
"q@	c #003347",
"r@	c #002D39",
"s@	c #003D4E",
"t@	c #004963",
"u@	c #00465E",
"v@	c #004760",
"w@	c #002A3B",
"x@	c #004B65",
"y@	c #003A49",
"z@	c #00465D",
"A@	c #004960",
"B@	c #00445C",
"C@	c #004862",
"D@	c #002D36",
"E@	c #004660",
"F@	c #00455E",
"G@	c #001F2B",
"H@	c #004962",
"I@	c #002F3E",
"J@	c #003642",
"K@	c #002F3C",
"L@	c #004A64",
"M@	c #003543",
"N@	c #003044",
"O@	c #004964",
"P@	c #00323F",
"Q@	c #00445A",
"R@	c #00455D",
"S@	c #004863",
"T@	c #00465A",
"U@	c #00465B",
"V@	c #003341",
"W@	c #002D40",
"X@	c #002D38",
"Y@	c #004761",
"Z@	c #00485E",
"`@	c #00303D",
" #	c #00455F",
".#	c #00435F",
"+#	c #004A65",
"@#	c #00425D",
"##	c #00485D",
"$#	c #004B66",
"%#	c #00405A",
"&#	c #002D3B",
"*#	c #004961",
"=#	c #002E3D",
"-#	c #002D3A",
";#	c #004864",
">#	c #004A61",
",#	c #004D68",
"'#	c #00435E",
")#	c #001C23",
"!#	c #001D24",
"~#	c #002128",
"{#	c #00242B",
"]#	c #004762",
"^#	c #003E4F",
"/#	c #004E69",
"(#	c #004461",
"_#	c #002E42",
":#	c #004C68",
"<#	c #00425F",
"[#	c #001E25",
"}#	c #004560",
"|#	c #002E41",
"1#	c #002B32",
"2#	c #004965",
"3#	c #004662",
"4#	c #002738",
"5#	c #002027",
"6#	c #004661",
"7#	c #004561",
"8#	c #003949",
"9#	c #003039",
"0#	c #002C33",
"a#	c #003947",
"b#	c #00445D",
"c#	c #002E38",
"d#	c #003B54",
"e#	c #003C4C",
"f#	c #002E37",
"g#	c #00323C",
"h#	c #003946",
"i#	c #00323B",
"j#	c #00333C",
"k#	c #003B48",
"l#	c #00313B",
"m#	c #00495E",
"n#	c #004D61",
"o#	c #004255",
"p#	c #00313F",
"q#	c #00485C",
"r#	c #00495F",
"  . + @ # $ % & * = - ; > & - > , @ ' ) ! ~ { ] ^ / { ( ^ _ : < _ [ } | 1 $ # $ 2 ; 3 4 5 6 7 8 9 0 a ] b c < _ d _ e f g h i j ",
"k . + 1 l $ $ - & = - ; m n - > ; @ ' ) ! o { ] ^ f { ( ^ _ p q _ r s t 1 % & $ 2 ; n u 5 6 7 8 9 0 a ] v w _ _ p r x f y z A B ",
"= . + 1 % $ $ & n = - ; n C ' > ; @ ' ) ! D E ] ^ : F ( ^ G H _ _ q I . 1 $ J n 2 ; n K K 6 7 8 9 L M e N / b < w _ O c O P Q R ",
"S . + 1 & % $ & ' T - ; n u U > K + ' ) ! V E W ^ x F ( X Y x v _ x Z . 1 $ 2 C ` 5 >  ., 6 7 8 9 ..+.e @.#.#.p : v $.x %.&.Q R ",
"*.=.+ 1 $ J -.& - U ;.; n 5 U >.5 1 ' ) ! V E @.^ ,.F ( '.x ^ b < ).9 =.1 $ 2 ' 3 !.~.> ; 6 7 8 {.).].^./.( d (._ : _.q :.<.<.R ",
"[.}.+ 1 |.1.J & - ' 2.3.n 5 3. .U m ' ) ! V 4.e b ,.E X f #.W b 5.a 9 6.% $ & > m u 7 7.K 6 7 8 8.a 9.{ 5.0.a.X : b./ x c.d.e.f.",
"g.h.i.1 |.$ m J - J m 7 u 5 u , U j.k.) ! V 4.: v G [ G < ( W q l.m.n.o.p.M 5.5.q.L u >.C 3 7 ^.r.o q.s.t.@.: Y $.u.r v.w.Q R x.",
"g.g.r.1.|.$ & y.' J > u z.5 u A.U 2.B.z.! V 4.f v e r e b ( W e o.6.n.9 o.D {.D {.C.k.A.3 B.D.E.F.G.E.5.H.Y '.u.< G :.I.J.e.K.K.",
"g.g.L.l.1.$ $ 1.3 M.> 5 C 4 u N.U O.P.Z ! V W f b : X q #.( W t.~.6.n.9 D.H $.Q.9.9.j.R.C P.S.T.t.5.U.V.W.$.v.X.%.Y.Z.`. +K..+++",
"B.@+g.p.p.#+$ = ' 2.m 5 5 3 $+%+U O.P.&+.+V 5.e ^ p ^ < #.( [ /.! 6.n.] _.Y._ *+=+L -+R.y.4 P.B.;+$.>+w ,+'+)+!+~+f.{+]+^+x..+/+",
"j.! (+_+r.l.:+= & n C 5 5 $+<+%+U O.P.[+.+D.;+^ x : F < #.( @.V 8 6.D _.< }+}+}+|+L 1+2+y.4 z.{ 3+$.%.I.4+5+6+L 7+8+9+8+L V 0+a ",
"7 8 ! n.a+p.a+& = 1.M.> 5 $+5 %+U O.P..+0 +.b+c+;+E D.e #.( @./+8 6.;+G }+}+}+}+d+/+e+f+y.4 g+H.p _.'+h+~+x.9.s i+s D a {.8+R a ",
"7 8 n./+m.B.l.8 = 1.- 2 5 $+5 j+U O.P.~.{.M E.+.E ].k+/ #.( t.~.8 ^.l+m+}+}+}+n+o+.+>.> y.4 a+3+w Y.h p+++o.q+e+7+D {.D s r+a 9.",
"7 8 n.o.D D D p.n 1.- s+5 $+u t+U O.P.~./+F u.D.a @+D.f 4.( p.6.8 a.r }+}+}+u+v+w+1+5 O.}.T.x+f H I.h+y+7+]+e+9 L D ]+r+z+D a q+",
"O.P.~.B.D a F { 6.:+- A+m $+U j+U O.P.~.o.5.].D a @+b+: B+X ^.8 o.'.m+}+}+u+C+D+Z E+3.3 o.~ ).F+y h )+++/+9+Z o.o.q+e+I o.F.L G+",
"&+E+H+! D a ] [ ].- - A+- $+U 2+U O.P.~./.I+o.V a ].u.[ =+J+B.8 K+Y.}+}+L+d+D+} E+>.3.M+k.P.q.'.N+h d+n..+i+7+O+q+e+.+/+o.L 0+q+",
"[+~.9 R L a ] [ K+T - A+- $+u P+U O.P.~.K+D O+V a K+a.D.K+l.6.8 p v }+u+~+K.~.Q+K 5 3.M+O.m.+.w I.R+J.T.1+} /+n.S+} 9 /+/+T+z+o.",
"[+~.0 C.] /.] b ).) - A+- $+5 U+3 O.P.~.V+o./+D K+;+E k+8.W+8 D f }+}+X+D+9 Y+2 M.5 3.M+O.].;+c.h Z+w+~.3./+7+1+`+~.9 9 0+H+9 o.",
"[+~.0 C.b b+4.^ G.4 - A+- $+n n P.! P.M D./+{.).5.I+D.8.(+8 8  @q }+u+6+n.Z P+- M.5 3.M+O.5.w '+h Q n.&+T+/+} .@8 ~.n.&+S+n.7+o.",
"[+~.0 C.b +@4.^ d 7 - A+- $+P+T [+B.@@l.0 ..u.p.a I+#@(+} z.$@w m+}+%@6+9 H+2 - M.5 3.M+&@f '.*@P d.n.Q+9 9 .@[+8 ~.`+E+8 9 7+9 ",
"[+~.0 C.b 5.( b =@I - A+- $+2+y.4 j.$@T.).K+D D K+L.-@z.7 z.{ / }+}+n+;@]+ .2 - M.5 3.M+@@(.>@h ,@++I 1+9 } >.g+8 7 '@P.6.9 I .@",
"[+~.0 C.b u.( c+s.4 - A+P+u R.M+4 7 P.K+M B.].@@D 8 [+7 7 6.v.v }+}+%@f.9 5 2 - M.5 3.6.f _.)@h !@;@.@q+9 i+) g+8  .~@8 ! [+, > ",
"[+~.0 C.< e 4.5. @~@- {@P+5 j+M+4 7 0 K+/+D.M m.[+4 k.7 j.Q.>@}+}+}+}+]@9 q+- - M.5 ) s.(.^@h R+J.} .@n..+E+7 g+-+, 7 8 P.'@, K ",
"[+~.0 C.x ..] f l.<+- /@' U+(@M+4 7 @@0 @+@+P._@O.4 k.z.E.^@:@:@}+}+}+<@9 O+B.5 n 8 [@x _.'+h p+++Y+-+n.-+.@7 g+ .Y+7 8 Y+(@1.}@",
"[+~.0 C.a.F ] |@^.> - }@5 (@U+M+4 $@L.L g.j.6 S O.-+V c W 6+9+r+1@}+}+}+L /+D t.q.x ..H ,+h P `.} E+6.n.Q+&+7 7 f+4 7 P.A.(@{@2@",
"[+~.0 E Q.].^ d 3@' - 4@5 t+u M+4 a 0 [.8 y.6 S V p ;+X+i+- J J 5 ,@}+}+b L /+L {.].'.F+I.h 5@K.&+i+6.}  .4 7 ) ' 4 7 ) | & 6@M.",
"[+~.0 c+l.a ).+@R 1.1.}@5 7@u M+4 p.(+8@6 y.2.J+w Y.9@.@2 1.- J n [+0@}+0@/ ..I+).$.O I.h P `.} E+Z 6.&+5 4 7 > a@4 j. .A+% 6@i.",
"[+~.9.s.^.^.+...-+1.2 b@> R.u M+~.].c@j.y.3 ).F+v d@e@= @ f@A+- n > #.}+}+0@g@^@: h@0@h h 5@D+[+Q+! ! E+6 4 7 P+6 4 7 P+l $ i@i.",
"[+~./.p.D C.0.C.3.1.j@2@; %+u M+F.0 *.7.$+M F+m+}+k@2 + l@i@2@A+n > 9.m+}+}+}+z z }+z h 4+J.P.5 O.! j., S 4 k.P+6 4 7 2 # $ m@i.",
"[+~.b+a D t.u.3@J 1.n@j@2 P+u M+L.o@p@3.q@H v }+r@s@$ t@u@= & 2 ; > ! )@}+}+}+}+}+z h z Q T+j., 8 ! Y+> S 4 O.; 6 4 7 - # $ v@i.",
"[+~.E.0 D +.t..+& 1.4@' P+; u }.w@a 2.5  @G }+}+9@- |.x@$ = & 1.' u 4 h@}+}+}+}+}+z h Z.y@8 Y+H+8 P., y.S 4 ) K 6 ~@k.> # % z@i.",
"[+~.t.O+o 0.M z+= & A@5  .K u (+0 o@u O.w m+}+( o+$ B@C@$ = & 1.- C 3.>@}+}+}+}+}+h D@o+j.P.P+j.8 &+P+y.S 4 <+> u R.Q+~@l & {@i.",
"[+~.{ O+E.u.o >.= % 4@5 5 3 j.L.(+6.5 V ,.}+}+n+H+$ E@F@$ = & 1.- ;.C W z }+}+}+h 4+5+T+z.) U+g+8 U+> y.S 4 .@5 A., ~..+$ & j@m ",
"[+o.D.o.G@t.7+- = + 2@5 5 2.a+-@o@O.5 t.v }+}+<@U+$ H@+ $ = & 1.- J ` I@0@}+}+}+4+J@0+7 j.f+O.g+4 A.5 y.S 4  .5 R.u n.a ' & - m ",
"[+^.a+{.;+l.w+= & f@(@5 5 $+k.j.o@u <+w m+}+}+K@2 $ L@$ $ = & 1.- J 3 j.0@}+}+L+M@^+7 7 <+, z.j., K 5 y.S 4 , u t+;.n.I+~@& ' 3 ",
"! t.o.E.Q.k+9+= & m@n 5 5 $+M+N@6.5 P.: }+}+}+1@(@$ O@$ $ = & 1.- J ;.3 A K@P@y+r+4 7 4 N.3 z.3.%+5 5 y.S 4 A.5 n@;.n.I+} & ; 7.",
"L.F.m.+...o Q+= = 6@> 5 5 $+6 *.) 5 0 G }+}+}+3@% $ L@$ $ = & 1.- J M._@<+4 z+3 O.4 k.P+U+7 ~@s+K 5 5 y.S &+%+5 Q@;.n.I+m.& ; 5 ",
"8 6.T.|@I+I@; = = }@> 5 5 $+p@W+u 5 F )@}+}+}+ +j@|.H@$ $ = & 1.- J M.u U y.M+S O.&+, 2+k.7.s+A.n 5 5 y.S <+A.5 Q@;.n.E ]+& ; >.",
"7 8 F.u.D.B & = & R@> 5 5 C c@) 5 5 c+m+}+}+}+K@(@|.C@$ $ = & 1.- J M.> K  .u U >.j@2+) >.R.j@- n 5 5 y.6 A.; 5 A+;.n.b+s & ; >.",
"7 8 /.q D.7+= = & % > 5 5 8@p@5 5 5 '.z }+}+}+<@2 |.S@$ $ = & 1.- J M.> 5 P+R.T@R.; u %+U@1 1.- n 5 5 y.;.T@5 U 1.;.n.t.7.& ; >.",
"7 8 { [ D.V@$ = = - $+) W@W+u > 5 [+^@}+u+}+}+X@- l S@$ $ = & 1.- J M.> 5 5 5 U y.y.7@2@$ = 1.- n 5 5 U R.f+5 u 3 <+/+K+; & ; >.",
"7 8 p.^ D.{+$ = = 1.$+B.q@3.> > 5 T.,.w.w+n+}+L+> t Y@$ $ = & 1.- J M.> 5 5 5 U y.K u@1 $ = 1.- n 5 5 A.U@> > R.>.0 @@/+j@& ; >.",
"7 8 D.^ k+7+* = = 1.- n n ' n > 5 /.b o+R =+#.u+Y+k v@$ $ = & 1.- J M.> 5 5 5 U y.A.k 1 $ = 1.- n 5 ; Z@1.> P+t+K [+m.1+A+& ; >.",
"7 8 a [ k+ +% = = 1.- - J J n > 5 Q.`@++/+I+)@}+r+ #f@$ $ = & 1.- J M.> 5 5 5 U y.N..#1 $ = 1.- n K b@1 J > | 2 3.2.} U++ & ; >.",
"7 8 /+r k+{.1.= = 1.- - J J n > ) l+k@9 /+l.< }+z+C@F@$ $ = & 1.- J M.> 5 5 5 U y.; .#1 $ = 1.- K Q@}@1.J n b@M.3.6 T.A.# & ; >.",
"8 8 n.W F ].3.= = 1.- - J J n > /+h@++T./+{ < ( z++#l $ $ = & 1.- J M.> 5 5 5 U y.;.@#1 $ = 1.- P+A@$ 1.J (@##M.3.3 0 j@# & ; >.",
"E 8 n.9.B+k+P.= = 1.- - J J n > +@B+++T./+K+< L+.@$#1 $ $ = & 1.- J C &@o.B.7 $+y.M+%#1 $ = 1.J {@u@= 1.- 4@1 M.3.3 V = # & ; >.",
"W /+n.o.9.a &#:+= 1.- - J J n I X.e.q+T./+ @_ Z.(@$#1 $ $ = & 1.' !.w@B.q@p@0 S.6 S 3.1 $ = 1.- 6@|.= 1.| *#1.2 U+) 9.n # & ; >.",
"D.=#n.o.D 9.-#[+= 1.- - J J n J+G P@.+T./+5.0@M@v@;#1 $ $ = & - W@S.k.3 u C O.g+W+_@2.- $ = 1.(@A@1 = :+A@+ $ >#A.7.0 7 l & ; 3.",
"k+^.]+o.o.{.o B+M.1.- - J J F.f m+Q ~.T.O+p X@s@,#'#1 $ $ = & q@W@t.)#!#: B.M+_@z.8 _@O.$ = 1.A+}@1 = = *#$ u@j@9 =#V ~.k.2 7.K+",
"k+k+/+/+z+s ] %@E m - - M.D v._ }+x.~.T.{.O d+u@$## 1 $ $ = m w@(.~#g '+N+{#^.S O.P.k.7 ' = 1.R@R@1 = |.]#$ H@n 9 { 0 m.L V+s.E.",
"k+k+9./+.@4 E ^ r / /.^.d '._ }+}+k@~.T.{ #.^#/#(## 1 $ $ = _#q.%.I.h h h h N+B.O.4 [+4 C = 1.6@@ 1 = + ]#$ S@> 9 l.! B.~.o.9.9.",
"k+k+&#/+~@4 ^ X G X q ,.G v }+}+%@++~.T.x A F@:#<## 1 $ $ C p.[#)@h h h h h h z [+4 O.4 &+= 1.6@@ 1 = + }#$ ]#> ]+o@j.~..+9 7+o.",
"k+k+C.L L j.[ q G _ u+}+}+}+}+}+r@K.~./+f Y+;#;#<## 1 $ % |#w Y.h h h h h h h 1#;@4 4 ~@&+2 2 m@@ 1 = |.}#$ v@> 9 (+7 8 I .+7+o.",
"k+k+k+r@D ..d G ,.Y.}+}+}+}+}+}+X+8+~.^.v (@2#3#<## 1 $ ` 4#5#0@h h h h h h h 1#!+4 k.3.&+% & Y@@ 1 = $ 6#$ R@> 9 8@j.j.! z+I 9 ",
"k+k+k+4.^.F r v / Y.}+}+}+}+}+( d.} ~.[ ,@@ 3#7#<## 1 M.(+d g h h h h h h h 1#1#~+4 [+>.7.j@& ]#@ 1 = =  #$ B@> 9 /.[+f+.@8+q+T+",
"k+k+k+F X /.] ^ l+< }+}+}+}+}+d@8#8 ~./ |+  .#  <## :+W@F.5#0@h D@)+9#4+h h 1#0#a#4 k. .U+j@= C@@ 1 = :+b#$ (@> 9 I+k.l ' Y+I 9.",
"k+k+k+D.m+[ B+c w b }+}+}+}+u+d.j.8 n.w c#@#. 1.d#6 (+}.+.g h Z+a#e#1+6+f#1#1#g#r+4 O.f+R.= % C@@ 1 = 1.1 $ 1.$+9 K+j.l ' ) ~./+",
"k+k+k+%@`@6+d@,._ }+}+}+}+( V@r+z.8 0 F+h+M.. % M+}.u {.F+I.4+h#>.> 5 5 T+i#j#k#`+4 3.T@n@= = Y@@ 1 = 1.P+$ 1.U o@a+j.1.' ) ~.F.",
"k+k+/.9@y@L E G v }+}+}+}+`@^+k.z.8 {.>@}+-#=.A+$ % } [#'+h l#.@n > 5 5 5 ) r+) O.4 R.m#$ = & Y@@ 1 = 1.' ' 1.n C 7 [+[+' ) ~.F.",
"O+]@++y@]+a E / < }+}+}+K@y@`+3. .P.].Y.}+0@^ P.) 9 q *+h h J@J n  .%+2 5 y.M+S O.>.n#n@$ = 2 f@@ 1 = 1.J $+m M.3.3 [+~.n.O.~.].",
">.Q+o#} /+a E p *+}+}+K@y@C C s+I .+=#h@}+}+v u+p#,@&.4+h P 8#J n s+4@s+2+K u U ; q#r#1 $ = 1.R@@ 1 = 1.J m 8 $@6.-@! ! D c+q.(.",
"z@4@T+=#O+a [ H b ( `@y@3.M+n U+B.C.D < }+}+|+o+-#W b _ '+P r+J n }@- > > A.7@T@j+N. #1 $ = 1.1 @ 1 = 1.J > u g+!.F.w@^./+D F ..",
"1 ) o [ 0 a (.G r@v+G+.@5 y.s+) B.=+M -#c#P@D+I@%@W b r ,+P `+J n /@M.> 5 5 5 U y.N..#1 $ = 1.- |.1 = 1.J > 5 $+3 [+g+B.I+..J+d "};
